<?xml version="1.0" standalone="no"?>
<!DOCTYPE svg PUBLIC "-//W3C//DTD SVG 20010904//EN"
 "http://www.w3.org/TR/2001/REC-SVG-20010904/DTD/svg10.dtd">
<svg version="1.0" xmlns="http://www.w3.org/2000/svg"
 width="256.000000pt" height="256.000000pt" viewBox="0 0 256.000000 256.000000"
 preserveAspectRatio="xMidYMid meet">

<g transform="translate(0.000000,256.000000) scale(0.100000,-0.100000)"
fill="#000000" stroke="none">
<path d="M413 2553 c-36 -7 -112 -81 -123 -121 -8 -26 -10 -390 -8 -1174 3
-1131 3 -1137 24 -1164 11 -15 37 -42 58 -58 l38 -31 878 0 878 0 38 31 c21
16 47 43 58 58 21 27 21 36 24 926 l2 899 -259 3 c-286 3 -284 3 -335 72 -20
26 -21 43 -24 297 l-3 269 -612 -1 c-337 -1 -622 -4 -634 -6z m721 -433 c109
-41 177 -139 178 -254 1 -158 -120 -279 -277 -278 -105 1 -189 51 -241 144
-25 45 -29 64 -29 128 0 59 5 84 23 120 71 135 208 191 346 140z m13 -589
c170 -25 300 -149 333 -316 6 -33 10 -85 8 -115 -3 -47 -7 -56 -28 -67 -19
-10 -124 -13 -425 -13 -355 0 -403 2 -424 16 -22 16 -23 21 -19 113 5 118 32
185 108 265 98 104 255 144 447 117z m281 -803 c17 -17 15 -44 -4 -62 -13 -14
-66 -16 -425 -16 -264 0 -417 4 -430 10 -21 12 -25 50 -7 68 17 17 849 17 866
0z m536 -314 c19 -18 20 -28 6 -55 -10 -18 -29 -19 -703 -19 -526 0 -696 3
-705 12 -15 15 -15 51 0 66 9 9 178 12 699 12 612 0 689 -2 703 -16z"/>
<path d="M1015 2045 c-5 -2 -22 -6 -37 -9 -35 -8 -85 -50 -105 -89 -43 -84 -4
-206 80 -246 84 -41 173 -21 230 51 64 80 41 212 -46 262 -40 24 -101 39 -122
31z"/>
<path d="M885 1427 c-118 -46 -187 -135 -202 -257 l-6 -50 362 0 362 0 -6 48
c-16 115 -92 214 -191 252 -44 16 -77 20 -172 19 -64 0 -130 -6 -147 -12z"/>
<path d="M1750 2277 c0 -197 2 -217 19 -238 19 -24 22 -24 231 -27 l212 -3
-20 26 c-11 14 -115 123 -231 241 l-211 215 0 -214z"/>
</g>
</svg>
